<svg width="170" height="90" viewBox="0 0 170 90" fill="none" xmlns="http://www.w3.org/2000/svg">
<rect x="0.5" y="0.5" width="169" height="89" rx="3.5" stroke="#AFB1B8"/>
<path d="M85.7404 43.3533C85.3224 42.7432 85.1225 42.022 85.1699 41.2962V38.3135C85.1699 37.3992 85.359 36.7044 85.7372 36.2291C86.1154 35.7537 86.7649 35.517 87.6858 35.5191C88.5512 35.5191 89.1654 35.7213 89.5287 36.1259C89.9249 36.6421 90.1176 37.2733 90.0735 37.91V38.6109H88.5255V37.9009C88.531 37.6685 88.516 37.4361 88.4807 37.2061C88.4584 37.0488 88.3804 36.9033 88.2595 36.7934C88.1006 36.675 87.9003 36.6175 87.6987 36.6326C87.4866 36.6176 87.2762 36.6782 87.1089 36.8025C86.9741 36.9243 86.8842 37.0838 86.8525 37.2576C86.8081 37.5011 86.7878 37.7479 86.7916 37.995V41.6147C86.7672 41.964 86.8355 42.3134 86.9904 42.6312C87.0673 42.7387 87.1743 42.824 87.2993 42.8775C87.4243 42.9311 87.5625 42.9508 87.6987 42.9346C87.897 42.9501 88.0937 42.8912 88.2467 42.7708C88.3728 42.6523 88.454 42.4976 88.4775 42.3308C88.5136 42.0907 88.5297 41.8482 88.5255 41.6056V40.8714H90.0735V41.5419C90.117 42.2056 89.9289 42.8644 89.5383 43.4171C89.1825 43.86 88.5768 44.0815 87.6858 44.0815C86.7949 44.0815 86.1218 43.8449 85.7404 43.3533Z" fill="#AFB1B8"/>
<path d="M92.1861 43.3837C91.7951 42.9194 91.5996 42.2428 91.5996 41.3477V38.2104C91.5996 37.3244 91.7951 36.6538 92.1861 36.1987C92.5771 35.7436 93.2309 35.517 94.1475 35.5191C95.0577 35.5191 95.7083 35.7456 96.0993 36.1987C96.4903 36.6538 96.689 37.3244 96.689 38.2104V41.3477C96.689 42.2337 96.4903 42.9134 96.0929 43.3806C95.6955 43.8479 95.0481 44.0815 94.1475 44.0815C93.2469 44.0815 92.5803 43.8449 92.1861 43.3837ZM94.8686 42.6312C95.0086 42.3404 95.0724 42.0219 95.0545 41.7027V37.8615C95.0724 37.5485 95.0097 37.2361 94.8718 36.9512C94.7933 36.8414 94.6837 36.7547 94.5556 36.7011C94.4276 36.6474 94.2861 36.629 94.1475 36.6478C94.0084 36.6294 93.8667 36.6481 93.7382 36.7017C93.6097 36.7553 93.4996 36.8417 93.42 36.9512C93.279 37.2353 93.2152 37.5481 93.2341 37.8615V41.7209C93.2146 42.0402 93.2785 42.3591 93.42 42.6494C93.5102 42.7473 93.6216 42.8257 93.7465 42.8795C93.8714 42.9332 94.0071 42.961 94.1443 42.961C94.2815 42.961 94.4172 42.9332 94.5421 42.8795C94.667 42.8257 94.7783 42.7473 94.8686 42.6494V42.6312Z" fill="#AFB1B8"/>
<path d="M98.551 35.6106H100.218L101.471 41.3992L102.753 35.6106H104.374L104.538 43.9658H103.339L103.211 38.159L101.974 43.9658H101.012L99.7304 38.1378L99.6119 43.9658H98.4004L98.551 35.6106Z" fill="#AFB1B8"/>
<path d="M106.406 35.6106H109.002C110.498 35.6106 111.245 36.4014 111.245 37.9831C111.245 39.498 110.458 40.2544 108.883 40.2524H107.999V43.9658H106.396L106.406 35.6106ZM108.624 39.1814C108.782 39.2005 108.943 39.1867 109.095 39.1411C109.247 39.0956 109.387 39.0193 109.505 38.9175C109.689 38.6353 109.77 38.3039 109.736 37.974C109.744 37.7191 109.719 37.4642 109.659 37.2155C109.636 37.1324 109.596 37.0545 109.541 36.9863C109.486 36.918 109.417 36.8608 109.339 36.8181C109.116 36.7171 108.87 36.6711 108.624 36.6846H108.002V39.1814H108.624Z" fill="#AFB1B8"/>
<path d="M113.556 35.6106H115.277L117.043 43.9658H115.549L115.2 42.0393H113.665L113.306 43.9658H111.79L113.556 35.6106ZM115.027 41.0715L114.428 37.5644L113.828 41.0715H115.027Z" fill="#AFB1B8"/>
<path d="M118.469 35.6106H119.591L121.738 40.3768V35.6106H123.068V43.9658H122.001L119.841 38.9903V43.9658H118.466L118.469 35.6106Z" fill="#AFB1B8"/>
<path d="M126.184 40.7801L124.398 35.6223H125.902L126.991 38.9354L128.014 35.6223H129.485L127.722 40.7801V43.9658H126.184V40.7801Z" fill="#AFB1B8"/>
<path d="M88.2146 47.6189V48.0558H86.907V51.4509H86.3589V48.0558H85.0449V47.6189H88.2146Z" fill="#AFB1B8"/>
<path d="M92.3141 51.4512H91.891C91.8481 51.4537 91.8057 51.4407 91.7724 51.4148C91.7404 51.3925 91.7159 51.362 91.7019 51.3268L91.3238 50.4166H89.5097L89.1316 51.3268C89.1208 51.3649 89.1011 51.4001 89.0739 51.43C89.0403 51.4554 88.9982 51.4683 88.9553 51.4664H88.5322L90.1347 47.6345H90.6924L92.3141 51.4512ZM89.6604 50.0283H91.1731L90.5321 48.4688C90.4848 48.3509 90.4452 48.2303 90.4135 48.1078C90.3911 48.1806 90.3719 48.2504 90.3526 48.3111L90.295 48.4719L89.6604 50.0283Z" fill="#AFB1B8"/>
<path d="M95.0761 51.0748C95.1765 51.0798 95.2771 51.0798 95.3774 51.0748C95.4641 51.0664 95.5498 51.0512 95.6338 51.0293C95.7123 51.0111 95.7894 50.9878 95.8646 50.9595C95.9351 50.9322 96.0056 50.8988 96.0793 50.8655V50.0037H95.4383C95.4225 50.0046 95.4066 50.0023 95.3917 49.9971C95.3768 49.9919 95.3632 49.9838 95.3518 49.9734C95.3413 49.9648 95.3329 49.954 95.3274 49.9419C95.3218 49.9299 95.3192 49.9167 95.3197 49.9036V49.6093H96.5632V51.0779C96.4617 51.1466 96.3546 51.2075 96.2427 51.2599C96.1285 51.3133 96.0094 51.357 95.887 51.3904C95.7559 51.4269 95.6219 51.4533 95.4864 51.4693C95.331 51.4856 95.1748 51.4937 95.0185 51.4936C94.7421 51.4958 94.4678 51.4473 94.2108 51.351C93.9709 51.2596 93.7529 51.1234 93.5698 50.9504C93.3914 50.7757 93.2509 50.5695 93.1564 50.3436C93.0554 50.0896 93.0054 49.8199 93.009 49.5486C93.0056 49.2755 93.0545 49.0041 93.1532 48.7475C93.2454 48.5204 93.3861 48.3138 93.5666 48.1406C93.7495 47.9682 93.9676 47.833 94.2076 47.7431C94.4821 47.6454 94.7733 47.597 95.0665 47.6005C95.2157 47.6003 95.3647 47.6115 95.512 47.6339C95.6423 47.654 95.7701 47.6865 95.8934 47.731C96.0055 47.7709 96.1129 47.8217 96.2139 47.8827C96.3121 47.9426 96.4053 48.0095 96.4927 48.083L96.3389 48.3197C96.3268 48.3413 96.3089 48.3594 96.2869 48.3722C96.2649 48.3851 96.2397 48.392 96.2139 48.3925C96.1784 48.3914 96.144 48.3809 96.1145 48.3621C96.0665 48.3379 96.0152 48.3075 95.9575 48.2711C95.8894 48.2307 95.8175 48.1961 95.7428 48.1679C95.6472 48.1317 95.5486 48.1032 95.4479 48.083C95.3137 48.0596 95.1774 48.0484 95.0409 48.0496C94.8294 48.0474 94.6195 48.0834 94.4223 48.1558C94.244 48.2235 94.0833 48.3271 93.9512 48.4592C93.8184 48.597 93.7169 48.7592 93.6532 48.9356C93.51 49.3507 93.51 49.7981 93.6532 50.2131C93.7233 50.3933 93.8325 50.5576 93.9737 50.6955C94.1051 50.827 94.2646 50.9304 94.4416 50.999C94.6454 51.0652 94.8614 51.091 95.0761 51.0748Z" fill="#AFB1B8"/>
<path d="M100.186 51.014H101.936V51.4509H99.6504V47.6189H100.198L100.186 51.014Z" fill="#AFB1B8"/>
<path d="M103.755 51.4509H103.207V47.6189H103.755V51.4509Z" fill="#AFB1B8"/>
<path d="M105.794 47.6371C105.826 47.6547 105.855 47.6785 105.877 47.7069L108.22 50.5955C108.217 50.5501 108.217 50.5045 108.22 50.459C108.22 50.4165 108.22 50.374 108.22 50.3346V47.6038H108.698V51.4512H108.422C108.381 51.4543 108.34 51.447 108.303 51.43C108.27 51.4109 108.241 51.3862 108.217 51.3571L105.877 48.4716C105.877 48.5171 105.877 48.5595 105.877 48.602C105.877 48.6445 105.877 48.684 105.877 48.7204V51.4512H105.419V47.6189H105.704C105.735 47.619 105.766 47.6252 105.794 47.6371Z" fill="#AFB1B8"/>
<path d="M112.733 47.6189V48.0406H110.791V49.3059H112.364V49.7124H110.791V51.0202H112.733V51.4419H110.227V47.6189H112.733Z" fill="#AFB1B8"/>
<path d="M55.304 23.9539L79.6389 30.4953V53.4173L55.304 46.879V23.9539ZM53.7432 22V47.9925L81.1965 55.3743V29.3848L53.7432 22Z" fill="#AFB1B8"/>
<path d="M68.4565 67.4402L41 60.0522V34.0625L68.4565 41.4474V67.4402Z" fill="#AFB1B8"/>
<path d="M54.1978 23.6596L78.2155 30.1189L68.0014 39.7912L43.9806 33.3288L54.1978 23.6596ZM53.7427 22L41 34.0631L68.4565 41.4478L81.196 29.3847L53.7427 22Z" fill="#AFB1B8"/>
<path d="M70.001 65.978L81.1957 55.3774L70.001 52.3647V65.978Z" fill="#AFB1B8"/>
</svg>
