<svg width="170" height="90" viewBox="0 0 170 90" fill="none" xmlns="http://www.w3.org/2000/svg">
<rect x="0.5" y="0.5" width="169" height="89" rx="3.5" stroke="#AFB1B8"/>
<path d="M71.3457 65.7946C71.3607 65.795 71.3755 65.7982 71.3891 65.8041C71.4028 65.81 71.4152 65.8184 71.4254 65.8289L71.6312 66.0446C71.4714 66.2191 71.274 66.3588 71.0524 66.4539C70.7929 66.5577 70.5133 66.6078 70.2319 66.6009C69.9675 66.6061 69.7049 66.5594 69.4603 66.4637C69.2396 66.3758 69.0414 66.2437 68.879 66.0764C68.7132 65.9029 68.5855 65.6996 68.5034 65.4784C68.4135 65.2318 68.3692 64.9723 68.3723 64.7113C68.3686 64.4486 68.4166 64.1875 68.5137 63.9417C68.6036 63.7191 68.7391 63.5158 68.9124 63.3436C69.0881 63.1749 69.2982 63.0423 69.5297 62.9539C69.7831 62.8604 70.0528 62.8138 70.3245 62.8167C70.5769 62.8108 70.8279 62.8534 71.0627 62.9417C71.2664 63.0259 71.4535 63.1428 71.6157 63.2873L71.4434 63.5177C71.4315 63.5339 71.4167 63.548 71.3997 63.5593C71.3793 63.5726 71.3548 63.5787 71.3302 63.5765C71.3035 63.5747 71.2778 63.5663 71.2556 63.552L71.163 63.4907L71.0344 63.4123C70.9789 63.3832 70.9213 63.3578 70.8621 63.3363C70.7858 63.3103 70.7076 63.2898 70.628 63.275C70.5271 63.2573 70.4246 63.2491 70.3219 63.2505C70.1263 63.2482 69.9322 63.2832 69.7509 63.3534C69.5819 63.4185 69.4294 63.5171 69.3034 63.6427C69.1751 63.7762 69.0763 63.9329 69.0127 64.1034C68.9403 64.2985 68.9046 64.5043 68.9073 64.7113C68.9042 64.9214 68.9399 65.1305 69.0127 65.3289C69.0755 65.498 69.1725 65.6537 69.2982 65.7872C69.416 65.9117 69.5621 66.0089 69.7252 66.0715C69.8931 66.1379 70.0733 66.1712 70.2551 66.1696C70.3601 66.1711 70.465 66.1646 70.5689 66.15C70.7385 66.1302 70.9012 66.0741 71.0447 65.9858C71.1167 65.9405 71.1847 65.8897 71.2479 65.8338C71.2744 65.8098 71.3091 65.7958 71.3457 65.7946Z" fill="#AFB1B8"/>
<path d="M77.2876 64.7108C77.2908 64.9709 77.2437 65.2292 77.1487 65.473C77.0649 65.6941 76.9328 65.8958 76.7613 66.0648C76.5897 66.2338 76.3825 66.3662 76.1533 66.4533C75.6497 66.6363 75.093 66.6363 74.5895 66.4533C74.3617 66.3648 74.1559 66.2321 73.985 66.0636C73.8135 65.8916 73.6805 65.6882 73.594 65.4657C73.4088 64.972 73.4088 64.4325 73.594 63.9388C73.6818 63.7162 73.8146 63.5122 73.985 63.3384C74.1573 63.1752 74.3631 63.0476 74.5895 62.9635C75.0924 62.7772 75.6503 62.7772 76.1533 62.9635C76.3818 63.0519 76.5885 63.1846 76.7603 63.3531C76.9297 63.5235 77.0617 63.7243 77.1487 63.9437C77.244 64.1892 77.2911 64.4492 77.2876 64.7108ZM76.7475 64.7108C76.7515 64.5028 76.7185 64.2956 76.6497 64.0981C76.5921 63.929 76.4984 63.7729 76.3745 63.6399C76.2539 63.5139 76.1054 63.4152 75.9398 63.3507C75.5739 63.2167 75.1688 63.2167 74.8029 63.3507C74.6373 63.4152 74.4888 63.5139 74.3682 63.6399C74.2426 63.7722 74.148 63.9284 74.0905 64.0981C73.9596 64.4971 73.9596 64.9246 74.0905 65.3235C74.1485 65.4931 74.2431 65.6492 74.3682 65.7818C74.489 65.907 74.6375 66.0049 74.8029 66.0685C75.1695 66.1991 75.5732 66.1991 75.9398 66.0685C76.1053 66.0049 76.2538 65.907 76.3745 65.7818C76.4978 65.6484 76.5915 65.4925 76.6497 65.3235C76.7187 65.1261 76.7518 64.9189 76.7475 64.7108Z" fill="#AFB1B8"/>
<path d="M81.3413 65.3532L81.3953 65.4904C81.4158 65.4414 81.4339 65.3973 81.4544 65.3532C81.474 65.3071 81.4964 65.2621 81.5213 65.2184L82.8357 62.942C82.8614 62.9028 82.8845 62.8783 82.9103 62.8709C82.9452 62.8608 82.9818 62.8566 83.0183 62.8587H83.4067V66.5613H82.9463V63.8388C82.9463 63.8045 82.9463 63.7653 82.9463 63.7237C82.9438 63.6812 82.9438 63.6387 82.9463 63.5962L81.6242 65.9046C81.6074 65.9391 81.5805 65.9684 81.5468 65.9888C81.513 66.0092 81.4738 66.02 81.4339 66.0197H81.3593C81.3192 66.0203 81.2799 66.0097 81.2461 65.9892C81.2122 65.9687 81.1854 65.9393 81.1689 65.9046L79.8083 63.5815C79.8083 63.6256 79.8083 63.6698 79.8083 63.7139C79.8083 63.758 79.8083 63.7972 79.8083 63.8315V66.5539H79.3633V62.8587H79.7517C79.7882 62.8566 79.8247 62.8608 79.8597 62.8709C79.8916 62.886 79.917 62.9111 79.9317 62.942L81.2744 65.2209C81.3008 65.263 81.3231 65.3073 81.3413 65.3532Z" fill="#AFB1B8"/>
<path d="M86.2869 65.1692V66.5562H85.7725V62.8585H86.9196C87.1362 62.8546 87.3521 62.8818 87.5601 62.9394C87.7266 62.9843 87.881 63.0629 88.0128 63.1697C88.127 63.2699 88.2151 63.394 88.27 63.5324C88.3307 63.6832 88.3604 63.8438 88.3575 64.0053C88.3597 64.1675 88.3274 64.3284 88.2623 64.4782C88.2005 64.6201 88.1054 64.7466 87.9845 64.8482C87.8525 64.9595 87.6974 65.043 87.5292 65.0933C87.329 65.1542 87.1195 65.1832 86.9093 65.179L86.2869 65.1692ZM86.2869 64.7723H86.9093C87.0446 64.7739 87.1792 64.7549 87.308 64.7159C87.4143 64.6818 87.5123 64.6277 87.5961 64.5566C87.6734 64.4888 87.7332 64.405 87.771 64.3116C87.8131 64.2128 87.8341 64.107 87.8327 64.0004C87.8387 63.8976 87.8211 63.7948 87.7811 63.6992C87.7412 63.6035 87.6798 63.5174 87.6013 63.4466C87.4047 63.3004 87.1579 63.2296 86.9093 63.2481H86.2869V64.7723Z" fill="#AFB1B8"/>
<path d="M93.2007 66.5612H92.7943C92.7536 66.5626 92.7135 66.5505 92.6812 66.5268C92.652 66.5038 92.6291 66.4744 92.6143 66.4411L92.2645 65.5466H90.5077L90.145 66.4411C90.1317 66.4738 90.1095 66.5025 90.0807 66.5244C90.048 66.5495 90.007 66.5625 89.965 66.5612H89.5586L91.1019 62.8582H91.6369L93.2007 66.5612ZM90.6543 65.1863H92.105L91.4928 63.6791C91.4461 63.5658 91.4074 63.4495 91.3771 63.3311L91.3179 63.5247C91.2999 63.5836 91.2794 63.6375 91.2614 63.6816L90.6543 65.1863Z" fill="#AFB1B8"/>
<path d="M95.4238 62.8754C95.4546 62.8915 95.481 62.9141 95.501 62.9416L97.7516 65.7329C97.7516 65.6887 97.7516 65.6446 97.7516 65.603C97.7516 65.5613 97.7516 65.5197 97.7516 65.4804V62.8582H98.212V66.5612H97.9548C97.9183 66.5622 97.8821 66.5547 97.8494 66.5391C97.8176 66.5215 97.7896 66.4982 97.7671 66.4705L95.519 63.6817C95.5215 63.7241 95.5215 63.7666 95.519 63.8091C95.519 63.8508 95.519 63.8875 95.519 63.9218V66.5612H95.0586V62.8582H95.3312C95.3631 62.8574 95.3947 62.8632 95.4238 62.8754Z" fill="#AFB1B8"/>
<path d="M102.003 65.0884V66.5588H101.489V65.0884L100.066 62.8584H100.527C100.566 62.8561 100.606 62.8674 100.637 62.8902C100.665 62.914 100.689 62.9422 100.707 62.9735L101.597 64.4121C101.633 64.4733 101.664 64.5297 101.689 64.5836C101.715 64.6375 101.736 64.689 101.754 64.7405L101.821 64.5812C101.846 64.5229 101.875 64.4664 101.908 64.4121L102.785 62.9637C102.804 62.9348 102.826 62.9084 102.852 62.8853C102.883 62.8599 102.922 62.8467 102.963 62.8486H103.428L102.003 65.0884Z" fill="#AFB1B8"/>
<path d="M81.0859 56.6443C81.3097 56.6712 81.5361 56.6933 81.765 56.7129C85.2356 55.2337 88.1716 52.8127 90.206 49.7526C92.2404 46.6924 93.283 43.1289 93.2033 39.5073L89.3785 35.8633C90.1562 39.7191 89.7925 43.705 88.3279 47.3751C86.8634 51.0452 84.3559 54.2546 81.0859 56.6443Z" fill="#AFB1B8"/>
<path d="M79.7207 56.4748L79.8236 56.4944C83.3178 54.1132 85.9819 50.788 87.4712 46.9488C88.9606 43.1097 89.2068 38.9331 88.1779 34.9592L82.7301 29.769C84.9336 34.0353 85.8205 38.8098 85.2878 43.5374C84.7551 48.265 82.8245 52.7514 79.7207 56.4748Z" fill="#AFB1B8"/>
<path d="M98.1964 43.7861C97.2709 47.7654 95.023 51.3541 91.7866 54.0196C90.8414 54.8023 89.8219 55.4996 88.7412 56.1025C91.3766 55.3646 93.7988 54.0598 95.8212 52.289C97.8436 50.5181 99.4122 48.3284 100.406 45.8887L98.1964 43.7861Z" fill="#AFB1B8"/>
<path d="M97.3292 43.2002L94.1835 40.2031C94.1233 43.6201 93.1037 46.9594 91.2306 49.8739C89.3575 52.7885 86.6993 55.1718 83.5322 56.7764H83.5477C84.2534 56.7761 84.9586 56.736 85.6594 56.6563C88.6192 55.5053 91.2339 53.6742 93.2702 51.3262C95.3064 48.9782 96.7009 46.1865 97.3292 43.2002Z" fill="#AFB1B8"/>
<path d="M80.1757 27.5803L76.4229 24C73.0681 25.2351 70.1828 27.4064 68.1446 30.2297C66.1065 33.053 65.0105 36.3968 65 39.8234V39.8234C65.0126 43.6097 66.3502 47.2838 68.8012 50.2643C71.2521 53.2448 74.6764 55.3614 78.5321 56.2791C81.974 52.2838 83.9892 47.347 84.2847 42.186C84.5803 37.025 83.1409 31.9086 80.1757 27.5803Z" fill="#AFB1B8"/>
<path d="M106 42.649C105.987 38.1568 104.108 33.8522 100.773 30.6757C97.4394 27.4992 92.9213 25.709 88.2062 25.6961C86.0274 25.6939 83.8671 26.077 81.835 26.8258L104.812 48.7166C105.599 46.7815 106.002 44.7241 106 42.649Z" fill="#AFB1B8"/>
</svg>
